<?xml version="1.0" standalone="no"?>
<!DOCTYPE svg PUBLIC "-//W3C//DTD SVG 20010904//EN"
 "http://www.w3.org/TR/2001/REC-SVG-20010904/DTD/svg10.dtd">
<svg version="1.0" xmlns="http://www.w3.org/2000/svg"
 width="150.000000pt" height="196.000000pt" viewBox="0 0 150.000000 196.000000"
 preserveAspectRatio="xMidYMid meet">
 <title>Art of igmus</title>
<g transform="translate(0.000000,196.000000) scale(0.100000,-0.100000)"
 stroke="none">
<path d="M0 980 l0 -980 750 0 750 0 0 980 0 980 -750 0 -750 0 0 -980z m320
704 c-16 -19 -33 -3 215 -208 l200 -165 3 177 c3 171 2 178 -19 195 -21 17
-20 17 36 17 56 0 57 -1 41 -19 -14 -16 -16 -41 -14 -194 l3 -176 195 160
c244 200 237 194 220 213 -11 14 -6 16 41 16 47 -1 52 -2 36 -14 -16 -12 -17
-58 -17 -708 l0 -696 25 -16 c39 -26 30 -36 -35 -36 -63 0 -74 9 -40 33 20 14
20 23 18 300 l-3 286 -227 -205 -228 -204 0 51 c0 44 2 50 15 39 8 -6 20 -8
27 -4 23 14 388 346 388 353 -1 7 -397 334 -411 339 -5 2 -9 -62 -9 -151 0
-141 2 -155 20 -172 32 -29 24 -35 -40 -35 -33 0 -60 3 -60 7 0 4 9 16 20 28
19 20 20 33 18 177 l-3 154 -217 -179 -218 -180 0 -293 0 -294 25 -16 c14 -9
25 -20 25 -25 0 -11 -127 -12 -134 -1 -3 5 7 18 23 29 l27 21 -4 688 c-4 603
-6 691 -20 707 -14 16 -12 17 38 17 46 0 51 -2 40 -16z"/>
<path d="M290 1468 c0 -91 3 -253 7 -360 l6 -195 211 174 c116 95 212 177 213
181 1 6 -362 311 -418 351 -19 13 -19 10 -19 -151z"/>
<path d="M1003 1449 c-116 -96 -211 -177 -210 -181 3 -11 428 -360 433 -355 2
2 1 163 -3 357 l-8 352 -212 -173z"/>
</g>
</svg>
